<mxfile host="app.diagrams.net" agent="Mozilla/5.0 (Windows NT 10.0; Win64; x64) AppleWebKit/537.36 (KHTML, like Gecko) Chrome/131.0.0.0 Safari/537.36" version="24.8.6">
  <diagram name="Strona-1" id="_sPu-S5FssWAwvMOAaDv">
    <mxGraphModel dx="1434" dy="694" grid="1" gridSize="10" guides="1" tooltips="1" connect="1" arrows="1" fold="1" page="1" pageScale="1" pageWidth="827" pageHeight="1169" math="0" shadow="0">
      <root>
        <mxCell id="0" />
        <mxCell id="1" parent="0" />
        <mxCell id="Q3mw6IbOepYIolGAIJCJ-1" value="Computer file" style="swimlane;fontStyle=1;align=center;verticalAlign=top;childLayout=stackLayout;horizontal=1;startSize=26;horizontalStack=0;resizeParent=1;resizeParentMax=0;resizeLast=0;collapsible=1;marginBottom=0;whiteSpace=wrap;html=1;" vertex="1" parent="1">
          <mxGeometry x="70" y="60" width="160" height="222" as="geometry" />
        </mxCell>
        <mxCell id="Q3mw6IbOepYIolGAIJCJ-2" value="- name: String&lt;div&gt;-size: int&lt;/div&gt;&lt;div&gt;-format: String&lt;/div&gt;&lt;div&gt;-adress: String&lt;/div&gt;&lt;div&gt;-last_modified: Date&lt;/div&gt;" style="text;strokeColor=none;fillColor=none;align=left;verticalAlign=top;spacingLeft=4;spacingRight=4;overflow=hidden;rotatable=0;points=[[0,0.5],[1,0.5]];portConstraint=eastwest;whiteSpace=wrap;html=1;" vertex="1" parent="Q3mw6IbOepYIolGAIJCJ-1">
          <mxGeometry y="26" width="160" height="84" as="geometry" />
        </mxCell>
        <mxCell id="Q3mw6IbOepYIolGAIJCJ-3" value="" style="line;strokeWidth=1;fillColor=none;align=left;verticalAlign=middle;spacingTop=-1;spacingLeft=3;spacingRight=3;rotatable=0;labelPosition=right;points=[];portConstraint=eastwest;strokeColor=inherit;" vertex="1" parent="Q3mw6IbOepYIolGAIJCJ-1">
          <mxGeometry y="110" width="160" height="10" as="geometry" />
        </mxCell>
        <mxCell id="Q3mw6IbOepYIolGAIJCJ-4" value="+open()&lt;div&gt;+close()&lt;br&gt;&lt;div&gt;+setName()&lt;/div&gt;&lt;/div&gt;&lt;div&gt;+reName()&lt;/div&gt;&lt;div&gt;+delete()&lt;/div&gt;&lt;div&gt;+create()&lt;/div&gt;" style="text;strokeColor=none;fillColor=none;align=left;verticalAlign=top;spacingLeft=4;spacingRight=4;overflow=hidden;rotatable=0;points=[[0,0.5],[1,0.5]];portConstraint=eastwest;whiteSpace=wrap;html=1;" vertex="1" parent="Q3mw6IbOepYIolGAIJCJ-1">
          <mxGeometry y="120" width="160" height="102" as="geometry" />
        </mxCell>
        <mxCell id="Q3mw6IbOepYIolGAIJCJ-5" value="Bank Account" style="swimlane;fontStyle=1;align=center;verticalAlign=top;childLayout=stackLayout;horizontal=1;startSize=26;horizontalStack=0;resizeParent=1;resizeParentMax=0;resizeLast=0;collapsible=1;marginBottom=0;whiteSpace=wrap;html=1;" vertex="1" parent="1">
          <mxGeometry x="334" y="60" width="160" height="230" as="geometry" />
        </mxCell>
        <mxCell id="Q3mw6IbOepYIolGAIJCJ-6" value="- Account_id: int&lt;div&gt;-Owner: String&lt;/div&gt;&lt;div&gt;-Balance: int&lt;/div&gt;&lt;div&gt;-Date_of_expire: Date&lt;/div&gt;&lt;div&gt;-date_of_creating: Date&lt;/div&gt;&lt;div&gt;-CVC: int&lt;/div&gt;" style="text;strokeColor=none;fillColor=none;align=left;verticalAlign=top;spacingLeft=4;spacingRight=4;overflow=hidden;rotatable=0;points=[[0,0.5],[1,0.5]];portConstraint=eastwest;whiteSpace=wrap;html=1;" vertex="1" parent="Q3mw6IbOepYIolGAIJCJ-5">
          <mxGeometry y="26" width="160" height="94" as="geometry" />
        </mxCell>
        <mxCell id="Q3mw6IbOepYIolGAIJCJ-7" value="" style="line;strokeWidth=1;fillColor=none;align=left;verticalAlign=middle;spacingTop=-1;spacingLeft=3;spacingRight=3;rotatable=0;labelPosition=right;points=[];portConstraint=eastwest;strokeColor=inherit;" vertex="1" parent="Q3mw6IbOepYIolGAIJCJ-5">
          <mxGeometry y="120" width="160" height="8" as="geometry" />
        </mxCell>
        <mxCell id="Q3mw6IbOepYIolGAIJCJ-8" value="+Transfer()&lt;div&gt;+Delete()&lt;/div&gt;&lt;div&gt;+Create_subaccount()&lt;/div&gt;&lt;div&gt;+Block()&lt;/div&gt;&lt;div&gt;+Connect_to_wallet()&lt;/div&gt;" style="text;strokeColor=none;fillColor=none;align=left;verticalAlign=top;spacingLeft=4;spacingRight=4;overflow=hidden;rotatable=0;points=[[0,0.5],[1,0.5]];portConstraint=eastwest;whiteSpace=wrap;html=1;" vertex="1" parent="Q3mw6IbOepYIolGAIJCJ-5">
          <mxGeometry y="128" width="160" height="102" as="geometry" />
        </mxCell>
        <mxCell id="Q3mw6IbOepYIolGAIJCJ-9" value="Human being" style="swimlane;fontStyle=1;align=center;verticalAlign=top;childLayout=stackLayout;horizontal=1;startSize=26;horizontalStack=0;resizeParent=1;resizeParentMax=0;resizeLast=0;collapsible=1;marginBottom=0;whiteSpace=wrap;html=1;" vertex="1" parent="1">
          <mxGeometry x="590" y="60" width="160" height="220" as="geometry" />
        </mxCell>
        <mxCell id="Q3mw6IbOepYIolGAIJCJ-10" value="-Name: String&lt;div&gt;-Age: int&lt;/div&gt;&lt;div&gt;-Height: int&lt;/div&gt;&lt;div&gt;-Weight: int&lt;/div&gt;&lt;div&gt;-Nationality: String&lt;/div&gt;" style="text;strokeColor=none;fillColor=none;align=left;verticalAlign=top;spacingLeft=4;spacingRight=4;overflow=hidden;rotatable=0;points=[[0,0.5],[1,0.5]];portConstraint=eastwest;whiteSpace=wrap;html=1;" vertex="1" parent="Q3mw6IbOepYIolGAIJCJ-9">
          <mxGeometry y="26" width="160" height="84" as="geometry" />
        </mxCell>
        <mxCell id="Q3mw6IbOepYIolGAIJCJ-11" value="" style="line;strokeWidth=1;fillColor=none;align=left;verticalAlign=middle;spacingTop=-1;spacingLeft=3;spacingRight=3;rotatable=0;labelPosition=right;points=[];portConstraint=eastwest;strokeColor=inherit;" vertex="1" parent="Q3mw6IbOepYIolGAIJCJ-9">
          <mxGeometry y="110" width="160" height="18" as="geometry" />
        </mxCell>
        <mxCell id="Q3mw6IbOepYIolGAIJCJ-12" value="+create()&lt;div&gt;+delete()&lt;/div&gt;&lt;div&gt;+eat()&lt;/div&gt;&lt;div&gt;+sleep()&lt;/div&gt;&lt;div&gt;+work()&lt;/div&gt;" style="text;strokeColor=none;fillColor=none;align=left;verticalAlign=top;spacingLeft=4;spacingRight=4;overflow=hidden;rotatable=0;points=[[0,0.5],[1,0.5]];portConstraint=eastwest;whiteSpace=wrap;html=1;" vertex="1" parent="Q3mw6IbOepYIolGAIJCJ-9">
          <mxGeometry y="128" width="160" height="92" as="geometry" />
        </mxCell>
      </root>
    </mxGraphModel>
  </diagram>
</mxfile>
